<svg version="1.2" xmlns="http://www.w3.org/2000/svg" viewBox="0 0 1024 740" width="1024" height="740">
	<title>Kirkkaasti</title>
	<style>
		.s0 { opacity: .98;fill: #39E000 }
	</style>
	<path id="Path 0" fill-rule="evenodd" class="s0" d="m242.69 20c0.17 1.93 0.78 6.88 1.37 11 0.59 4.13 2.35 12.45 3.9 18.5 1.56 6.05 4.12 13.7 5.69 16.99 1.57 3.3 5.37 8.7 8.45 12 3.53 3.8 8.14 7.35 12.5 9.66 3.79 2.01 10.5 4.78 14.9 6.17 4.4 1.38 12.73 3.49 18.5 4.67 5.77 1.19 10.73 2.36 11 2.61 0.27 0.25-1.19 0.44-3.25 0.43-2.06-0.02-9.26 1.13-16 2.55-6.74 1.42-15.62 3.93-19.75 5.59-4.12 1.66-9.3 4.27-11.5 5.79-2.2 1.53-5.69 4.63-7.75 6.91-2.06 2.27-5.32 7.28-7.25 11.13-1.93 3.85-4.62 11.16-5.99 16.25-1.36 5.09-3.21 13.97-4.11 19.75-0.89 5.78-1.76 10.72-1.94 11-0.17 0.28-0.84-3.32-1.47-8-0.64-4.68-2.47-13.56-4.08-19.75-1.6-6.19-4.36-14.29-6.14-18-1.77-3.71-5.53-9.22-8.34-12.25-3.09-3.32-7.86-6.95-12.02-9.15-3.8-2.01-10.51-4.77-14.91-6.14-4.4-1.37-12.28-3.22-17.5-4.11-5.22-0.89-10.62-1.63-12-1.66-1.37-0.03 5.15-2 14.5-4.38 9.35-2.38 19.93-5.52 23.5-6.97 3.57-1.46 8.75-4.13 11.5-5.94 2.75-1.81 6.63-5.28 8.63-7.72 2-2.44 4.76-6.68 6.14-9.43 1.37-2.75 3.63-8.6 5.01-13 1.39-4.4 3.51-14.08 4.73-21.5 1.22-7.42 2.48-14.18 2.8-15 0.34-0.85 0.72 0.02 0.88 2zm280.31 55.52c21.32 0.23 44.4 1.04 53.5 1.87 8.8 0.8 21.63 2.19 28.5 3.09 6.87 0.9 20.38 2.97 30 4.59 9.63 1.62 24.48 4.56 33 6.54 8.52 1.97 23.83 5.99 34 8.92 10.17 2.94 23.23 6.98 29 9 5.77 2.01 18.38 6.81 28 10.66 9.63 3.85 26.95 11.6 38.5 17.22 11.55 5.62 30.64 15.81 42.43 22.65 13.82 8.03 23.54 14.39 27.37 17.94 3.28 3.03 7.11 7.75 8.52 10.5 2.1 4.09 2.57 6.37 2.54 12.5-0.02 5.39-0.69 9.19-2.35 13.5-1.27 3.3-11.2 25.57-22.05 49.5-10.86 23.93-26.13 57.23-33.94 74-7.8 16.77-20.38 43.1-27.95 58.5-11.96 24.32-14.54 28.84-19.67 34.37-3.24 3.51-7.92 7.54-10.4 8.96-2.48 1.42-6.52 3.19-9 3.93-2.48 0.74-7.88 1.35-12 1.35-4.13 0.01-10.65-0.66-14.5-1.49-3.85-0.82-12.4-3.16-19-5.2-6.6-2.03-20.1-5.9-30-8.58-9.9-2.69-24.3-6.2-32-7.8-7.7-1.6-22.33-4.05-32.5-5.44-10.17-1.39-25.02-3.11-33-3.81-9.68-0.86-32.9-1.29-125.18-1.29l24.68-23.38 7.5-0.7c4.13-0.39 22.57-0.44 41-0.12 18.42 0.33 41.38 1.31 51 2.18 9.63 0.88 25.15 2.69 34.5 4.03 9.35 1.34 22.85 3.59 30 5.01 7.15 1.42 20.2 4.38 29 6.57 8.8 2.2 22.75 6.07 31 8.59 8.25 2.52 18.6 5.66 23 6.96 4.4 1.31 10.25 2.36 13 2.35 2.75-0.02 6.8-0.85 9-1.85 2.2-1 5.54-3.58 7.42-5.73 1.94-2.21 11.06-19.31 21.03-39.41 9.69-19.52 21.37-43.6 25.97-53.5 4.6-9.9 17.52-38.14 28.72-62.75 11.2-24.61 20.99-47.11 21.76-50 0.94-3.56 1.13-6.7 0.59-9.75-0.62-3.46-1.73-5.31-4.79-8-2.19-1.93-8.42-5.93-13.84-8.9-5.42-2.97-16.61-9.02-24.86-13.43-8.25-4.42-20.62-10.58-27.5-13.7-6.87-3.12-19.48-8.5-28-11.94-8.52-3.45-19.33-7.62-24-9.26-4.67-1.65-15.7-5.22-24.5-7.93-8.8-2.71-22.98-6.67-31.5-8.8-8.52-2.13-20.23-4.79-26-5.92-5.77-1.13-16.12-2.97-23-4.1-6.87-1.13-20.15-2.93-29.5-3.99-9.35-1.07-24.2-2.41-33-2.97-8.8-0.57-24.1-1.22-34-1.46-9.9-0.23-26.77-0.02-37.5 0.48-10.73 0.5-26.93 1.62-36 2.48-9.07 0.86-22.8 2.45-30.5 3.54-7.7 1.09-21.87 3.55-31.5 5.47-9.62 1.92-23.35 5.02-30.5 6.89-7.15 1.88-13.68 3.68-14.5 4.01-1.22 0.48-1.94-1.72-3.82-11.69-1.27-6.75-2.17-12.38-2-12.5 0.18-0.12 8.2-2.24 17.82-4.71 9.63-2.46 25.82-6.04 36-7.95 10.18-1.91 26.15-4.43 35.5-5.61 9.35-1.18 25.1-2.77 35-3.52 12.5-0.96 29.46-1.26 55.5-0.97zm-360.43 60.48c0.23 0.28 1.1 5.22 1.94 11 0.83 5.78 2.66 14.78 4.06 20 1.4 5.22 3.98 12.15 5.74 15.38 1.75 3.23 5.44 7.94 8.19 10.47 2.75 2.52 8.15 6.03 12 7.79 3.85 1.77 11.28 4.34 16.5 5.71 5.23 1.37 11.91 2.86 14.86 3.32 2.96 0.46 5.51 1.05 5.68 1.33 0.16 0.28-2.25 0.82-5.37 1.21-3.12 0.4-10.17 1.85-15.67 3.24-5.5 1.39-13.6 4.27-18 6.42-5.56 2.71-9.32 5.38-12.33 8.77-2.38 2.67-5.59 7.56-7.12 10.86-1.54 3.3-3.73 9.6-4.87 14-1.15 4.4-2.79 12.73-3.65 18.5-0.86 5.77-1.67 10.6-1.8 10.71-0.13 0.12-1.05-4.15-2.06-9.5-1.01-5.34-2.74-13.31-3.86-17.71-1.12-4.4-3.74-11.6-5.82-16-2.72-5.76-5.28-9.39-9.14-12.97-3-2.79-8.42-6.36-12.35-8.15-3.85-1.75-12.17-4.35-18.5-5.77-6.32-1.42-12.74-2.59-14.25-2.6-1.51 0-2.76-0.35-2.77-0.76 0-0.41 3.26-1.37 7.25-2.12 4-0.75 11.1-2.47 15.77-3.82 4.68-1.34 11.2-3.73 14.5-5.3 3.3-1.57 8.03-4.61 10.5-6.76 2.48-2.16 5.91-6.13 7.63-8.83 1.73-2.71 4.08-7.85 5.24-11.42 1.15-3.57 2.97-10.78 4.03-16 1.06-5.22 2.22-12.2 2.58-15.5 0.36-3.3 0.85-5.78 1.09-5.5zm255.56 17.3c0.34 0.66 0.94 3.9 1.32 7.2 0.38 3.3 1.35 8.25 2.15 11 0.8 2.75 2.56 6.69 3.93 8.75 1.7 2.58 4.42 4.69 8.72 6.76 3.44 1.65 9.52 3.56 13.51 4.25 3.99 0.68 7.26 1.46 7.26 1.74 0 0.28-2.14 0.82-4.76 1.2-2.62 0.39-7.01 1.36-9.76 2.18-2.75 0.81-7.02 2.99-9.5 4.85-2.48 1.86-5.49 5.15-6.71 7.32-1.21 2.17-2.87 6.88-3.69 10.45-0.82 3.57-1.8 8.75-2.88 16.5l-1.22-7c-0.67-3.85-1.92-9.47-2.78-12.5-0.86-3.03-3.06-7.53-4.89-10-2.13-2.88-5.31-5.5-8.83-7.28-3.03-1.52-8.54-3.32-12.26-4-3.71-0.67-6.75-1.44-6.75-1.72 0-0.28 3.04-1.09 6.76-1.82 3.71-0.72 9-2.37 11.75-3.66 2.75-1.29 6.37-3.85 8.05-5.68 1.68-1.84 4.08-6.04 5.33-9.34 1.25-3.3 2.8-9.24 3.45-13.2 0.64-3.96 1.45-6.66 1.8-6zm329.8 18.67c2.07-0.02 4.72 0.82 6.32 2 1.82 1.34 2.96 3.3 3.36 5.78 0.33 2.06 0.11 4.76-0.5 6-0.61 1.24-4.15 3.98-7.86 6.1-3.71 2.12-22.95 13.21-42.75 24.66-19.8 11.45-44.55 25.99-55 32.32-10.45 6.34-26.2 16.1-35 21.71-8.8 5.6-25.23 16.35-36.5 23.89-11.27 7.53-22.75 14.74-25.5 16.02-2.75 1.28-6.58 2.65-12 3.78l2.5-2.68c1.37-1.47 8.12-7.13 15-12.56 6.87-5.44 18.12-14.07 24.98-19.19 6.87-5.11 13.12-10.43 13.89-11.8 0.92-1.63 1.19-3.8 0.77-6.25-0.35-2.06-1.74-4.99-5.55-9.25l16.71-9.65c9.18-5.31 26.15-14.81 37.7-21.1 11.55-6.3 27.52-14.84 35.5-18.99 7.98-4.15 24.82-12.77 37.43-19.16 16.24-8.22 23.96-11.61 26.5-11.63zm-459.2 57.34c0.13 0.1 1.17 5.59 2.32 12.19 1.15 6.6 2.96 14.59 4.02 17.75 1.06 3.16 2.98 7.44 4.26 9.5 1.29 2.06 4.33 5.45 6.75 7.52 2.43 2.07 7.12 4.84 10.42 6.16 3.3 1.31 10.95 3.43 28 7.03l-6.5 1.35c-3.58 0.74-10.1 2.31-14.5 3.48-4.85 1.3-10.27 3.63-13.75 5.92-3.26 2.15-7.14 5.85-8.95 8.54-1.76 2.61-4.25 7.9-5.54 11.75-1.29 3.85-3.27 12.18-4.4 18.5-1.12 6.32-2.11 11.59-2.2 11.69-0.09 0.11-0.49-2.14-0.89-5-0.4-2.85-1.91-9.92-3.35-15.69-1.45-5.77-3.69-12.75-4.98-15.5-1.28-2.75-4.05-6.96-6.14-9.36-2.22-2.54-6.3-5.56-9.8-7.25-3.3-1.59-9.6-3.75-14-4.81-4.4-1.06-9.8-2.25-12-2.63-3.86-0.69-3.64-0.79 6-3.01 5.5-1.27 12.02-3.03 14.5-3.92 2.48-0.89 6.3-2.66 8.5-3.95 2.2-1.28 5.69-4.18 7.75-6.45 2.06-2.27 4.6-5.81 5.64-7.87 1.04-2.06 3.05-8.48 4.46-14.25 1.42-5.78 2.93-13.06 3.36-16.19 0.44-3.14 0.89-5.61 1.02-5.5zm296.27 25.66c1.38-0.02 3.27 0.77 4.2 1.75 0.94 0.98 1.8 2.68 1.91 3.78 0.11 1.1 0.14 2.79 0.05 3.75-0.09 1-7.38 7.2-16.91 14.4-9.21 6.96-24.17 18.61-33.25 25.89-9.08 7.28-22.8 18.77-30.5 25.54-7.7 6.77-21.2 18.84-30 26.82-8.8 7.98-38.05 36.42-65 63.19-26.95 26.77-50.01 49.18-51.25 49.79-1.24 0.62-3.82 1.12-5.75 1.12-1.93 0-4.96-0.74-6.75-1.65-1.79-0.9-4.75-2.82-6.58-4.25-1.82-1.43-4.18-4.4-5.23-6.6-1.05-2.2-1.92-5.24-1.93-6.75 0-1.51 0.59-4.21 1.32-6 0.89-2.19 8.48-9.46 23.25-22.28 12.05-10.47 27.32-23.54 33.92-29.04 6.6-5.5 19.2-15.82 28-22.94 8.8-7.11 27.25-21.67 41-32.35 13.75-10.68 33.46-25.55 43.79-33.03 13.74-9.94 18.79-14.15 18.77-15.61-0.03-1.48 2.89-3.83 11.14-9 6.14-3.85 18.4-11.38 27.24-16.74 8.83-5.36 17.19-9.77 18.56-9.79zm-386.56 48.13c0.52-0.05 2.75 4.29 4.96 9.65 2.21 5.36 8.82 19.65 14.68 31.75 5.87 12.1 16.76 34.38 24.2 49.5 7.44 15.12 14.84 29.07 16.44 31 1.6 1.93 4.91 4.51 7.35 5.74 2.62 1.32 6.26 2.23 8.93 2.23 2.8 0 15.67-3.37 34-8.91 16.23-4.9 32.87-9.87 37-11.03 4.12-1.17 7.63-1.99 7.79-1.83 0.16 0.17-5.29 6.6-12.11 14.3-6.82 7.7-13.47 14.97-14.79 16.15-1.63 1.47-9.2 3.96-23.89 7.86-19.53 5.18-22.19 5.66-29 5.2-4.13-0.28-9.75-1.2-12.5-2.05-2.75-0.85-7.9-3.48-11.45-5.85-3.55-2.37-8.41-6.79-10.8-9.81-2.67-3.37-11.87-20.67-23.8-44.75-10.7-21.59-19.44-39.36-19.42-39.5 0.01-0.14-4.09-8.8-9.13-19.25-5.03-10.45-8.75-19.13-8.27-19.3 0.48-0.16 4.92-2.7 9.87-5.64 4.95-2.95 9.42-5.4 9.94-5.46zm613.56 192.03c2.48-0.07 7.31 0.33 10.75 0.88 3.44 0.54 8.84 1.96 12 3.15 4.25 1.59 7.47 3.88 12.34 8.75 4.99 4.98 7.14 8.05 8.84 12.59 1.23 3.3 2.65 8.48 3.15 11.5 0.5 3.02 0.91 9.44 0.92 23h-30l-0.01-9.25c0-5.09-0.49-11.05-1.09-13.25-0.6-2.2-2.06-5.06-3.25-6.35-1.18-1.28-3.5-3.03-5.15-3.87-2.07-1.06-4.55-1.36-8-0.98-2.75 0.3-6.12 1.41-7.5 2.48-1.37 1.06-3.4 3.46-4.5 5.32-1.53 2.6-2 5.17-1.98 10.9 0.02 5.45 0.59 8.73 2.1 12 1.14 2.48 4.28 6.93 6.98 9.91 2.69 2.97 11.62 11.29 19.82 18.5 8.21 7.2 17.1 15.79 19.75 19.09 2.65 3.3 6.15 8.7 7.77 12 1.63 3.3 3.65 8.92 4.49 12.5 0.85 3.58 1.54 10.77 1.54 16 0 5.23-0.69 12.42-1.54 16-0.85 3.58-2.98 9.15-4.74 12.38-1.75 3.23-5.33 7.85-7.94 10.25-2.61 2.4-7.56 5.71-11 7.35-4.05 1.93-9.25 3.38-14.75 4.11-6.25 0.83-10.42 0.83-15.75 0.02-3.99-0.61-9.84-2.1-13-3.32-3.75-1.44-7.78-4.14-11.59-7.75-3.66-3.46-6.93-7.79-8.73-11.54-1.59-3.3-3.37-9.15-3.95-13-0.58-3.85-0.93-11.05-0.77-16 0.16-4.95 0.63-8.89 1.04-8.75 0.41 0.14 6.71 0.25 27.25 0.24l0.65 10.75c0.38 6.18 1.34 12.36 2.25 14.51 0.88 2.06 2.84 4.66 4.35 5.76 1.51 1.11 4.78 2.49 7.25 3.07 3.31 0.78 5.69 0.75 9-0.14 2.48-0.66 5.67-2.38 7.11-3.82 1.72-1.73 3.04-4.67 3.87-8.62 0.78-3.69 1.02-8.69 0.63-13-0.44-4.86-1.47-8.52-3.37-11.97-1.51-2.74-5.22-7.46-8.26-10.5-3.03-3.04-11.55-10.93-18.93-17.53-7.37-6.6-15.83-14.92-18.79-18.5-2.96-3.58-6.76-9.42-8.45-13-1.7-3.58-3.74-9.65-4.54-13.5-0.98-4.68-1.27-9.65-0.86-15 0.33-4.4 1.28-10.48 2.1-13.5 0.83-3.02 2.57-7.3 3.87-9.5 1.3-2.2 5.01-6.4 8.24-9.32 3.61-3.27 8-6.11 11.38-7.35 3.03-1.12 7.53-2.38 10-2.81 2.48-0.43 6.53-0.83 9-0.89zm-795 3.87h30l0.08 78.5 33.42-78.47 15.75-0.02c12.16-0.01 15.66 0.28 15.34 1.24-0.22 0.69-7.25 16.77-15.61 35.75-8.36 18.98-15.78 35.62-16.5 37-1.15 2.22-0.84 3.8 2.7 14 2.2 6.33 10.68 30.85 18.83 54.5 8.15 23.65 15.09 43.79 15.41 44.75 0.54 1.63-0.6 1.73-32.83 1.25l-13.04-39.73c-7.18-21.85-13.27-39.74-13.55-39.75-0.27 0-2.63 4.83-9.98 21.48l-0.02 58.5h-30zm114 0h30v189h-30zm54 0l29.25 0.01c21.1 0.01 30.64 0.38 34.25 1.34 2.75 0.73 6.77 2.19 8.94 3.24 2.16 1.05 5.92 3.71 8.35 5.91 2.49 2.26 5.82 6.83 7.65 10.5 1.82 3.64 3.8 9.8 4.52 14 0.85 4.99 1.13 13.36 0.83 25-0.38 14.68-0.8 18.39-2.57 23-1.16 3.02-3.64 7.75-5.5 10.5-1.87 2.75-5.38 6.51-7.81 8.36-2.42 1.86-4.55 3.88-4.71 4.5-0.17 0.63 5.79 19.48 26.8 82.64l-31.5 0.03-1.79-5.26c-0.98-2.9-5.77-18.32-10.64-34.27-4.88-15.95-9.36-30.91-11.07-37.5h-14v77h-31zm31 87c20.14-0.46 22.31-0.82 24.68-2.56 1.55-1.13 3.86-4.06 5.12-6.5 2.19-4.22 2.29-5.32 2-21.94-0.26-15.14-0.57-18.03-2.3-21.44-1.1-2.16-3.27-4.86-4.82-6-2.35-1.71-4.66-2.12-13.64-2.42l-10.81-0.36zm85-87h30v39c0 26.93 0.33 38.92 1.06 38.75 0.58-0.14 5.32-10.15 10.54-22.25 5.21-12.1 12.72-29.54 23.9-55.52l31.5 0.02-2.36 5.25c-1.3 2.89-9.02 20.1-17.15 38.25-13.49 30.1-14.7 33.26-13.75 36 0.57 1.65 4.88 13.8 9.57 27 4.7 13.2 13.08 37.05 18.63 53 5.56 15.95 10.09 29.11 10.08 29.25-0.01 0.14-7.54 0.14-33.42-0.25l-13.68-41.5c-12.85-38.96-13.76-41.32-14.87-38.5-0.65 1.65-3.18 7.61-10.05 23.5v57h-30zm116 0h30l-0.03 39.25c-0.01 21.59 0.32 38.86 0.75 38.38 0.43-0.49 7.58-16.46 15.89-35.5 8.32-19.05 15.97-36.33 18.89-42.17l15.75 0.02c8.66 0.01 15.76 0.13 15.78 0.27 0.01 0.14-2.06 4.75-4.61 10.25-2.55 5.5-10.29 22.37-17.19 37.5-6.9 15.12-12.51 28.17-12.47 29 0.05 0.82 5.78 17.47 12.75 37 6.97 19.52 15.78 44.39 26.49 75l-33.5 0.01-13.5-40.51c-7.43-22.28-13.73-40.51-14-40.52-0.28-0.01-2.86 5.28-11 23.52v57.5h-30zm186.5-0.02l6.24 34.26c3.43 18.84 9.86 54.51 14.29 79.26 4.43 24.75 9.27 51.85 13.47 75.47l-30.5 0.03-0.54-3.25c-0.3-1.79-1.76-10.45-5.96-35.25l-17.75-0.25c-13.46-0.19-17.87 0.05-18.24 1-0.26 0.69-1.84 9.24-3.5 19-1.65 9.76-3.01 17.97-3.01 18.25 0 0.27-6.53 0.5-14.5 0.5-13.83 0-14.5-0.09-14.5-2 0-1.1 3.58-21.69 7.96-45.75 4.37-24.06 11.8-65.35 16.49-91.75 4.7-26.4 8.54-48.34 8.54-48.75 0.01-0.41 9.35-0.76 41.51-0.77zm-25.54 61.52c-2.22 15.4-5.14 34.75-6.49 43-1.35 8.25-2.46 15.56-2.47 16.25 0 0.94 3.36 1.25 13.5 1.25 8.33 0 13.5-0.38 13.5-1 0-0.55-1.55-10.34-3.43-21.75-1.89-11.41-4.85-31.33-6.59-44.25-1.73-12.93-3.35-23.73-3.59-24-0.25-0.28-0.43 0.17-0.42 1 0.01 0.82-1.79 14.1-4.01 29.5zm144.54-61.53l1.26 6.27c0.7 3.44 4.61 24.71 8.71 47.26 4.1 22.55 11.07 61.25 15.5 86 4.42 24.75 8.27 46.01 9.03 49.5l-30.47-0.5-2.16-12c-1.18-6.6-2.65-15.26-4.37-26.5h-18.5c-18.39 0-18.5 0.01-18.92 2.25-0.24 1.24-1.7 10.01-6.08 36.76l-29.5-0.01 0.44-2.25c0.25-1.24 3.37-18.9 6.96-39.25 3.58-20.35 8.8-50.28 11.61-66.5 2.81-16.23 7.1-40.86 9.55-54.75 2.44-13.89 4.44-25.48 4.44-25.75 0-0.28 9.56-0.51 42.5-0.53zm-25.06 57.53c-1.42 9.9-4.12 27.22-6.01 38.5-1.89 11.27-3.66 21.74-3.93 23.25l-0.5 2.75c27.81 0 28.96-0.14 28.55-1.75-0.24-0.96-1.57-8.28-2.95-16.25-1.37-7.98-4.11-25.08-6.07-38-1.97-12.93-3.93-25.53-4.37-28-0.76-4.36-0.81-4.4-1.46-1.5-0.37 1.65-1.84 11.1-3.26 21zm170.56-57.5h95.5l0.5 27h-34v162h-30v-162h-32zm109 0h30v189h-30z"/>
</svg>
